# xmcd CD database file
#
# Track frame offsets:
#	150
#	19278
#	35460
#
# Disc length: 751 seconds
#
# Revision: 0
# Processed by: cddbd v1.5.1PL0 Copyright (c) Steve Scherf et al.
# Submitted via: CDex 1.51
#
DISCID=1d02ed03
DTITLE=ポルノグラフィティ - シスター
DYEAR=2004
DGENRE=J-pop
TTITLE0=シスター
TTITLE1=Human Being
TTITLE2=天気職人
EXTD=YEAR: 2004
EXTT0=
EXTT1=
EXTT2=
PLAYORDER=
